HIERARCHY
ROOT pelvis
{
  OFFSET 0 100 0
  CHANNELS 6 Xposition Yposition Zposition Zrotation Xrotation Yrotation
  JOINT pelvis_right_femur
  {
    OFFSET -10.78128 -3.44521 -0.5502486
    CHANNELS 3 Zrotation Xrotation Yrotation
    JOINT right_femur_tibia
    {
      OFFSET -0.8047443 -44.0398 -0.1307829
      CHANNELS 3 Zrotation Xrotation Yrotation
      JOINT right_tibia_foot
      {
        OFFSET 3.006224 -47.83518 -5
        CHANNELS 3 Zrotation Xrotation Yrotation
        End Site
        {
          OFFSET 0 -5 15
        }
      }
    }
  }
  JOINT pelvis_left_femur
  {
    OFFSET 10.78128 -3.44521 -0.5502486
    CHANNELS 3 Zrotation Xrotation Yrotation
    JOINT left_femur_tibia
    {
      OFFSET 0.8047443 -44.0398 -0.1307829
      CHANNELS 3 Zrotation Xrotation Yrotation
      JOINT left_tibia_foot
      {
        OFFSET -4.370144 -48.10324 -4.275266
        CHANNELS 3 Zrotation Xrotation Yrotation
        End Site
        {
          OFFSET 0 -5 15
        }
      }
    }
  }
  JOINT pelvis_spine1
  {
    OFFSET 0 6.468898 -3.129235
    CHANNELS 3 Zrotation Xrotation Yrotation
    JOINT spine1
    {
      OFFSET 0 23.15396 4.99043
      CHANNELS 3 Zrotation Xrotation Yrotation
      JOINT spine2
      {
        OFFSET 0 20.79997 -5.064912
        CHANNELS 3 Zrotation Xrotation Yrotation
        JOINT neck
        {
          OFFSET 0 14.38658 9.616178
          CHANNELS 3 Zrotation Xrotation Yrotation
          End Site
          {
            OFFSET 0 20 0
          }
        }
      }
      JOINT right_manubrium
      {
        OFFSET -5.722621 16.35077 3.967754
        CHANNELS 3 Zrotation Xrotation Yrotation
        JOINT right_clavicle
        {
          OFFSET -13.16364 1.694482 -4.693211
          CHANNELS 3 Zrotation Xrotation Yrotation
          JOINT right_humerus
          {
            OFFSET -28.5034 -0.3100689 -2.792744
            CHANNELS 3 Zrotation Xrotation Yrotation
            JOINT right_radius
            {
              OFFSET -25.15693 0.02248979 -1.271978
              CHANNELS 3 Zrotation Xrotation Yrotation
              End Site
              {
                OFFSET -15 0 0
              }
            }
          }
        }
      }
      JOINT left_manubrium
      {
        OFFSET 5.722621 16.35077 3.967754
        CHANNELS 3 Zrotation Xrotation Yrotation
        JOINT left_clavicle
        {
          OFFSET 13.16364 1.694482 -4.693211
          CHANNELS 3 Zrotation Xrotation Yrotation
          JOINT left_humerus
          {
            OFFSET 29.39168 -1.063119 -2.237045
            CHANNELS 3 Zrotation Xrotation Yrotation
            JOINT left_radius
            {
              OFFSET 24.59957 -0.9528479 0.9047498
              CHANNELS 3 Zrotation Xrotation Yrotation
              End Site
              {
                OFFSET 15 -0 -0
              }
            }
          }
        }
      }
    }
  }
}
MOTION
Frames: 7
Frame Time: 0.0416666666667
-474.0187 103.7596 2957 -4.575985 -8.216237 -31.77079 6.210882 2.497912 -0.054619 -0 10.8444 -0 -10.73153 -5.506348 -2.54921 -1.334631 -9.56673 -4.589348 -0 54.08172 -0 -0.6987614 -4.522814 16.82062 0.3563788 -2.756013 4.609994 0.3023096 14.86705 -6.268118 1.378214 23.01145 4.686124 1.640952 -21.42115 6.710222 -4.148827 -24.13413 12.06787 94.72269 17.12113 -17.14644 -0 0 13.80306 -24.87446 11.04347 10.97983 4.626949 -24.8278 -7.726045 -90.24209 13.60092 22.1221 0 0 -15.15778 11.80491 17.22469 -2.497842
-476.682 103.8809 2961.554 -4.361246 -7.872851 -32.45546 5.908972 6.287887 0.1268818 -0 9.999076 -0 -10.48398 -8.304027 -2.23504 -0.1845061 -14.7239 -4.130758 -0 45.99879 -0 -0.3941326 -4.780658 17.72324 0.4707649 -2.976247 5.210024 0.1108766 15.28389 -5.913682 1.293435 22.55299 4.435989 1.539783 -21.12259 6.409323 -3.793313 -25.52011 12.21468 93.55669 17.13843 -15.26807 -0 0 16.77934 -25.45132 11.83408 12.03851 4.209557 -24.16671 -7.774965 -91.63369 12.76111 25.52384 0 0 -11.65356 11.15128 17.10313 -1.64397
-479.2573 103.436 2966.111 -4.35808 -7.183358 -33.0421 5.945266 9.429196 0.3146618 -0 9.566944 -0 -10.29533 -10.87524 -2.122722 1.295256 -18.55468 -3.443793 -0 35.65716 -0 0.03752037 -4.66326 18.45306 0.5626155 -3.15868 5.735145 -0.02266084 15.64329 -5.616903 1.221965 22.07416 4.156103 1.427481 -20.7743 6.095333 -3.349845 -26.80787 12.36305 92.371 17.14189 -13.51659 -0 0 19.59454 -25.84019 12.64763 13.02099 3.767054 -23.51266 -7.81243 -92.86511 11.97779 28.67934 0 0 -8.456093 10.46781 16.89024 -0.6826597
-481.7819 102.5533 2970.799 -4.518629 -6.381951 -33.63144 6.024822 12.19684 0.4085478 -0 9.64551 -0 -10.08056 -13.2334 -2.135947 2.631294 -20.92976 -2.889783 -0 25.44052 -0 0.2809328 -4.171273 18.89636 0.6407312 -3.303742 6.169229 -0.09099049 15.94262 -5.393737 1.172386 21.60185 3.845627 1.284911 -20.41526 5.790432 -2.881092 -27.9571 12.51154 91.26177 17.10257 -11.97946 -0 0 22.11517 -26.03973 13.45629 13.88834 3.312988 -22.89878 -7.833417 -93.88771 11.29428 31.47226 0 0 -5.748613 9.777231 16.6333 0.3452704
-484.3097 101.4496 2975.738 -4.668362 -5.738228 -34.28048 5.75139 14.78987 0.2930544 -0 10.50483 -0 -9.832416 -14.98779 -2.044755 3.248728 -21.90868 -2.943135 -0 17.33598 -0 0.09177358 -3.663339 19.04156 0.7135498 -3.416876 6.501299 -0.0978757 16.18534 -5.253039 1.150034 21.16929 3.514565 1.10314 -20.08494 5.518039 -2.45542 -28.92479 12.65584 90.33021 17.00711 -10.74085 -0 0 24.21295 -26.08027 14.22228 14.60708 2.874667 -22.36568 -7.838552 -94.6608 10.73784 33.78291 0 0 -3.68264 9.122277 16.39753 1.35627
-486.9027 100.3765 2981.01 -4.656193 -5.490705 -34.97052 4.878126 17.17331 -0.02593472 -0 12.64144 -0 -9.686977 -15.33514 -1.679241 2.781441 -21.60253 -3.899401 -0 12.47599 -0 -0.5219016 -3.584876 19.03806 0.7892021 -3.506847 6.73044 -0.05484658 16.37985 -5.198716 1.155382 20.81036 3.183267 0.8861353 -19.81963 5.298221 -2.139597 -29.67028 12.78953 89.67132 16.8583 -9.878985 -0 0 25.77412 -26.00635 14.89683 15.14147 2.488309 -21.9642 -7.834671 -95.15588 10.3191 35.50117 0 0 -2.369552 8.55977 16.24798 2.238082
-489.6087 99.57305 2986.615 -4.458456 -5.768017 -35.60536 3.443722 19.03139 -0.4018107 -0 16.59418 -0 -9.880018 -13.45387 -1.060365 1.278406 -20.11216 -5.678444 -0 10.98528 -0 -1.294037 -4.217158 19.1126 0.8750816 -3.583089 6.868586 0.02548111 16.53776 -5.231824 1.184191 20.54899 2.874198 0.6477285 -19.64335 5.140546 -1.982368 -30.16793 12.9078 89.34902 16.67138 -9.449627 -0 0 26.72638 -25.8533 15.43436 15.45514 2.185862 -21.74582 -7.832822 -95.36487 10.03117 36.55997 0 0 -1.862182 8.14431 16.22964 2.884227
